inDegrees=yes
name=ik_S42_A03_T01
DataType=double
version=3
OpenSimVersion=4.3-2021-08-27-4bc7ad9
endheader
time	pelvis_tilt	pelvis_list	pelvis_rotation	pelvis_tx	pelvis_ty	pelvis_tz	hip_flexion_r	hip_adduction_r	hip_rotation_r	knee_angle_r	knee_angle_r_beta	ankle_angle_r	subtalar_angle_r	mtp_angle_r	hip_flexion_l	hip_adduction_l	hip_rotation_l	knee_angle_l	knee_angle_l_beta	ankle_angle_l	subtalar_angle_l	mtp_angle_l	lumbar_extension	lumbar_bending	lumbar_rotation	arm_flex_r	arm_add_r	arm_rot_r	elbow_flex_r	pro_sup_r	wrist_flex_r	wrist_dev_r	arm_flex_l	arm_add_l	arm_rot_l	elbow_flex_l	pro_sup_l	wrist_flex_l	wrist_dev_l
33.07999999999957	-2.248903886721045	-0.3852877970296975	-80.84847094323324	0	0.9399999999999999	0	-3.251237554666178	-1.22719783671302	-5.35640808070981	29.61263870982096	0.5168380456899014	0	0	0	17.6979645222526	3.593743275165593	-1.209936597106114	6.053345571936244	0.1056508109913067	0	0	0	0	0	0	42.22382810428039	-42.22382810428039	4.960878148844054	84.46416212294497	85.03912212396149	0	0	42.22382810428039	-42.22382810428039	4.960878148844054	84.46416212294497	85.03912212395382	0	0
33.09999999999958	-1.646995310740669	-0.2606310282773801	-81.18793672767158	0	0.9399999999999999	0	-1.524948626096231	-3.064449356192361	-5.809091295732407	34.60079820302469	0.6038978524609183	0	0	0	16.73296107045114	4.138448652404282	-1.560960079709394	6.009053747872054	0.1048777728296725	0	0	0	0	0	0	42.22530265216484	-42.22530265216484	4.960919875430621	84.46473365656486	85.03908039737662	0	0	42.22530265216484	-42.22530265216484	4.960919875430621	84.46473365656486	85.03908039736895	0	0
33.11999999999958	-1.326776360618674	-0.1808962648525685	-81.32915874603063	0	0.9399999999999999	0	0.2577876762478539	-3.886929041196079	-6.440001574771159	36.95211074673634	0.6449359980921295	0	0	0	15.85529659220012	4.426721946425039	-1.353726648725065	6.037110041458084	0.1053674475286549	0	0	0	0	0	0	42.23896137793169	-42.23896137793169	4.961249538974227	84.46924902373034	85.03875073384603	0	0	42.23896137793169	-42.23896137793169	4.961249538974227	84.46924902373034	85.03875073383841	0	0
33.13999999999958	-0.6983834919708366	0.05267091544609822	-81.59483592140761	0	0.9399999999999999	0	2.313370600616151	-4.866049947947273	-6.588943184543371	40.06550185436673	0.699274923822593	0	0	0	14.27425429549865	5.08557351107201	-0.8379166861455324	5.18591238487943	0.09051124583609745	0	0	0	0	0	0	42.2498343064929	-42.2498343064929	4.961512383184996	84.47284917381232	85.03848788964559	0	0	42.2498343064929	-42.2498343064929	4.961512383184996	84.47284917381232	85.03848788963802	0	0
33.15999999999958	-0.2401555400262167	0.1686211083246613	-81.83602721646312	0	0.9399999999999999	0	4.368390078396572	-5.458091347449267	-7.087558584541832	42.37678696730277	0.7396144589956559	0	0	0	14.37261936236581	5.534630238319785	-1.214994931885973	6.182024435562481	0.1078966808393093	0	0	0	0	0	0	42.26889980914209	-42.26889980914209	4.9619668171329	84.47907350011459	85.03803345571555	0	0	42.26889980914209	-42.26889980914209	4.9619668171329	84.47907350011459	85.03803345570806	0	0
33.17999999999959	-0.01245356567343733	0.07703680060381714	-82.13434269176872	0	0.9399999999999999	0	6.248936374676253	-5.946818236460615	-7.609668360335683	43.49054976381759	0.7590532868810592	0	0	0	12.52578073491721	5.856696291569434	-0.9169541016146244	4.323243996498234	0.07545484210597238	0	0	0	0	0	0	42.26978430442234	-42.26978430442234	4.961991486654549	84.47941140014933	85.03800878619487	0	0	42.26978430442234	-42.26978430442234	4.961991486654549	84.47941140014933	85.03800878618742	0	0
33.19999999999959	0.08416741051377441	-0.03159232095738756	-82.34044939307654	0	0.9399999999999999	0	8.188802230095524	-6.032329179485326	-7.637644325087772	45.49819282922063	0.794093268577174	0	0	0	12.42751597775098	5.969978480284533	-1.280123664872467	5.870920050950927	0.1024668850104469	0	0	0	0	0	0	42.29388495145825	-42.29388495145825	4.962561719685828	84.4872218062384	85.03743855318595	0	0	42.29388495145825	-42.29388495145825	4.962561719685828	84.4872218062384	85.03743855317867	0	0
33.21999999999959	0.07615465952027271	-0.08561018755404527	-82.42447513228818	0	0.9399999999999999	0	10.20974871253657	-5.984749894283832	-7.894383811209438	44.61561546390151	0.7786893876487786	0	0	0	11.53498861397393	6.006098254591451	-1.368004321835212	5.630102605247493	0.09826382768667932	0	0	0	0	0	0	42.30306275748203	-42.30306275748203	4.962778159852895	84.49018635721959	85.03722211302737	0	0	42.30306275748203	-42.30306275748203	4.962778159852895	84.49018635721959	85.03722211302012	0	0
33.2399999999996	0.186159597638515	-0.325585754203311	-82.66937491485511	0	0.9399999999999999	0	9.942394243961182	-6.039744240785248	-7.749520853026709	43.16273457989464	0.7533318325835729	0	0	0	11.30900423382	6.055664152379689	-1.69016372706539	6.35697830897107	0.1109502019694066	0	0	0	0	0	0	42.30374117146744	-42.30374117146744	4.962796861708792	84.49044251753539	85.03720341117226	0	0	42.30374117146744	-42.30374117146744	4.962796861708792	84.49044251753539	85.03720341116504	0	0
33.2599999999996	0.2722815238260187	-0.4186193784785136	-82.76670522084179	0	0.9399999999999999	0	11.93979579051352	-5.943165107818185	-7.727515444367302	42.33396518343027	0.7388670778755033	0	0	0	9.660047496163735	6.258891408266874	-1.723842538039283	5.610891941042984	0.09792853834481562	0	0	0	0	0	0	42.30961224758794	-42.30961224758794	4.962933953060293	84.49232023649729	85.03706631982611	0	0	42.30961224758794	-42.30961224758794	4.962933953060293	84.49232023649729	85.03706631981893	0	0
33.2799999999996	0.2630029080013216	-0.3405646995216359	-82.82179587658796	0	0.9399999999999999	0	11.95585639598743	-5.896964716604295	-8.022997567136326	38.72733031675041	0.6759194245347131	0	0	0	9.035721208841169	6.422294914087042	-1.608159805447319	5.687272692459255	0.09926163394217689	0	0	0	0	0	0	42.31064093464587	-42.31064093464587	4.962962255512003	84.49270789654824	85.03703801737558	0	0	42.31064093464587	-42.31064093464587	4.962962255512003	84.49270789654824	85.03703801736842	0	0
33.29999999999961	0.2590736853291395	-0.3876946675464915	-82.80715230314222	0	0.9399999999999999	0	17.58406795288314	-4.286164731328377	-7.511380318218872	36.68291339728182	0.6402376180065066	0	0	0	8.254684068642527	6.715754572607988	-1.028472273954692	5.715799970468404	0.0997595288700683	0	0	0	0	0	0	42.33333025446	-42.33333025446	4.963493072865654	84.49997842303907	85.03650720004271	0	0	42.33333025446	-42.33333025446	4.963493072865654	84.49997842303907	85.03650720003569	0	0
33.31999999999961	0.3226596878283509	-0.3855598809155281	-82.75072108670791	0	0.9399999999999999	0	19.09716917818792	-3.681399503462672	-7.113091902819524	36.11906472467854	0.6303966021865797	0	0	0	6.918988293120568	7.209561835118713	0.2317489595832805	5.073887290992601	0.08855603910291651	0	0	0	0	0	0	42.33281825337446	-42.33281825337446	4.963482471843699	84.49983322353373	85.03651780106425	0	0	42.33281825337446	-42.33281825337446	4.963482471843699	84.49983322353373	85.03651780105724	0	0
33.33999999999961	0.4391009843994463	-0.2979477282826371	-82.68772256510103	0	0.9399999999999999	0	20.54771154060506	-2.883446197719472	-6.684216774688291	33.35278118811751	0.5821158464298768	0	0	0	6.396395112349493	7.334335260380032	0.3111164797086663	6.148516907280814	0.1073118641465891	0	0	0	0	0	0	42.34625094368981	-42.34625094368981	4.963797562327378	84.50414897195934	85.03620271059295	0	0	42.34625094368981	-42.34625094368981	4.963797562327378	84.50414897195934	85.03620271058604	0	0
